<svg version="1.1" id="Layer_1" xmlns="http://www.w3.org/2000/svg" xmlns:xlink="http://www.w3.org/1999/xlink" x="0px" y="0px"
	 width="100%" viewBox="0 0 800 800" enable-background="new 0 0 800 800" xml:space="preserve">
<path fill="#030303" opacity="1.000000" stroke="none" 
	d="
M470.000000,801.000000 
	C313.333344,801.000000 157.166672,801.000000 1.000000,801.000000 
	C1.000000,534.333313 1.000000,267.666656 1.000000,1.000000 
	C267.666656,1.000000 534.333313,1.000000 801.000000,1.000000 
	C801.000000,267.666656 801.000000,534.333313 801.000000,801.000000 
	C690.833313,801.000000 580.666687,801.000000 470.000000,801.000000 
M175.897995,407.943207 
	C175.897995,407.943207 175.632156,408.053833 175.822922,408.706421 
	C176.201599,408.918884 176.580276,409.131348 176.773636,409.144348 
	C176.773636,409.144348 176.576752,409.332428 176.777695,409.967651 
	C178.158264,411.388184 179.538834,412.808716 181.021667,414.651703 
	C181.176437,414.932404 181.414001,415.078552 182.051056,415.694153 
	C190.822205,424.972717 199.593353,434.251312 209.206024,444.420105 
	C209.206024,441.792999 209.203079,440.213715 209.206512,438.634430 
	C209.233643,426.150696 209.115677,413.663666 209.399918,401.185760 
	C209.465347,398.313049 210.911728,395.471771 211.652512,392.862885 
	C208.668076,392.862885 204.764969,392.862885 201.224991,392.862885 
	C202.479416,394.513000 204.666641,396.058899 204.713074,397.666595 
	C205.022064,408.365204 204.873276,419.077087 204.873276,430.146149 
	C199.003616,424.397003 193.600174,419.104462 188.091034,413.914978 
	C188.091034,413.914978 188.194717,414.020050 188.042297,413.427551 
	C187.726944,413.183075 187.411575,412.938629 186.840637,412.084564 
	C180.777390,405.320526 174.714142,398.556488 168.650894,391.792419 
	C168.081848,392.127502 167.512817,392.462555 166.943771,392.797607 
	C166.943771,406.578003 167.078522,420.360779 166.833298,434.136780 
	C166.782532,436.988495 165.319427,439.815033 164.541565,442.533264 
	C167.337204,442.533264 171.444046,442.533264 174.155350,442.533264 
	C173.179489,439.780304 171.823135,437.091003 171.331696,434.251953 
	C170.827164,431.337219 171.148621,428.276184 171.142532,425.279144 
	C171.129562,418.890289 171.138580,412.501373 171.138580,405.389740 
	C172.929611,406.271332 173.773743,406.686829 174.893051,407.693848 
	C175.265015,407.865540 175.636978,408.037231 175.897995,407.943207 
M548.993164,403.450378 
	C548.686829,403.211548 548.380432,402.972717 547.957397,402.313568 
	C547.766479,402.064484 547.514099,401.937103 546.851929,401.289886 
	C538.925049,396.250519 530.275208,399.668152 523.074036,398.593567 
	C523.867004,401.133392 525.105103,403.365204 525.178589,405.634705 
	C525.495850,415.436127 525.632263,425.251312 525.463928,435.055145 
	C525.419800,437.627380 524.046143,440.176819 523.309082,442.649292 
	C526.270874,442.649292 530.299316,442.649292 535.557617,442.649292 
	C533.610291,441.767731 532.770752,441.387665 531.711121,440.582367 
	C531.539368,440.302582 531.308105,440.086517 530.969482,439.008636 
	C530.863220,433.970764 530.756958,428.932922 531.323669,423.333252 
	C536.015564,422.303894 539.012878,424.295013 541.299438,428.359802 
	C543.000427,431.383636 545.232239,434.133911 547.413940,436.856812 
	C551.359314,441.780914 556.557800,443.396912 563.677490,442.375732 
	C553.627014,438.294739 550.027588,429.235443 544.402771,423.685028 
	C546.623291,420.121765 548.370667,417.317810 550.664734,414.013855 
	C550.472046,411.604431 550.279297,409.195038 550.084595,406.371796 
	C550.084595,406.371796 549.967285,405.974945 550.134766,405.562653 
	C549.791199,404.985291 549.447693,404.407928 549.044312,403.957245 
	C549.044312,403.957245 549.171570,404.015869 548.993164,403.450378 
M222.329987,363.807007 
	C212.183609,363.807007 202.037216,363.807007 191.890839,363.807007 
	C191.897095,364.450073 191.903336,365.093140 191.909592,365.736206 
	C202.307739,365.736206 212.705872,365.736206 224.020966,365.815094 
	C228.737320,365.777496 233.453690,365.739899 239.079559,365.800507 
	C274.867828,365.800507 310.656067,365.800507 346.641602,365.800507 
	C346.641602,365.492584 346.641602,364.097351 346.641602,362.297424 
	C310.225891,362.874725 274.123962,363.447021 237.107117,363.803192 
	C232.404144,363.871979 227.701157,363.940735 222.329987,363.807007 
M374.126984,318.767731 
	C373.887573,317.690491 373.648193,316.613251 373.514313,316.010834 
	C377.478516,314.361694 381.095795,312.856903 385.539948,311.289032 
	C386.859833,311.185150 388.181488,311.100037 389.499268,310.974304 
	C396.961578,310.262451 399.054626,312.141144 398.813690,319.581116 
	C398.374268,333.150604 397.853607,346.717468 397.385712,360.286041 
	C397.259552,363.944336 397.944672,367.965088 392.850159,369.114685 
	C392.533356,369.186218 392.444275,370.266907 391.785217,371.199188 
	C391.523315,371.468262 391.261414,371.737335 390.266205,372.208374 
	C388.354156,372.901611 384.779236,370.561615 384.739716,375.499817 
	C384.501801,375.893433 384.263885,376.287048 383.275665,376.858856 
	C382.523285,376.980164 381.770874,377.101440 380.528381,377.285645 
	C380.698547,378.059540 380.868683,378.833435 381.956665,379.779816 
	C394.622498,379.687408 407.288361,379.595032 420.381195,379.649231 
	C420.245605,378.858154 420.110046,378.067047 419.229858,376.960938 
	C418.159119,376.869293 417.088379,376.777649 416.040741,376.173553 
	C416.030243,375.831787 416.019745,375.490021 416.269012,374.583099 
	C414.178802,373.713226 412.088562,372.843384 409.701233,371.592194 
	C409.485168,371.349121 409.236725,371.145538 409.039215,370.202759 
	C403.668396,367.993011 403.229065,363.471863 403.163208,358.468842 
	C402.990662,345.363068 402.527863,332.261353 402.225800,319.156952 
	C402.079651,312.818542 404.014709,310.635315 410.341125,310.801849 
	C413.242828,310.878204 416.133575,311.960175 418.997650,312.707458 
	C421.704712,313.413757 424.370300,314.278961 427.441101,315.781860 
	C423.222595,327.192413 418.940948,338.580475 414.867188,350.042480 
	C414.369354,351.443176 414.986969,353.240326 415.419434,355.442047 
	C422.148651,362.592285 432.901886,363.673676 439.984772,357.489227 
	C441.644897,356.039703 442.078400,353.185364 443.063721,350.210144 
	C442.226715,348.068665 441.326538,345.949432 440.563599,343.781860 
	C437.180298,334.169586 433.836334,324.543457 431.063293,314.570374 
	C431.559601,313.358124 432.055878,312.145874 432.158417,311.895416 
	C428.903290,311.895416 425.841888,312.773956 423.726807,311.731842 
	C417.199066,308.515625 411.045258,304.528442 403.173828,305.792145 
	C403.068390,304.088623 403.242035,303.028625 402.900940,302.174072 
	C402.151642,300.297028 401.141937,298.523926 400.238556,296.708405 
	C399.505005,298.478149 398.207184,300.236053 398.169769,302.020386 
	C398.113312,304.716766 397.077972,305.080994 394.675598,305.548096 
	C390.377319,306.383789 386.239288,308.043579 381.421234,309.741241 
	C377.431915,311.627289 373.514313,315.322388 369.085022,309.370117 
	C368.760742,311.067902 368.588135,311.971558 367.795319,313.084076 
	C367.627289,315.679779 367.622467,318.298859 367.254913,320.865997 
	C366.623474,325.276245 365.765717,329.654083 364.611298,334.597900 
	C362.407654,340.078827 360.203979,345.559723 357.686615,351.773193 
	C358.150391,353.134796 358.304413,354.730347 359.127686,355.820465 
	C364.941895,363.519836 380.119263,363.198944 385.539124,355.251984 
	C386.263458,354.189972 386.184387,352.580017 386.360748,350.498718 
	C382.356903,340.203339 378.353058,329.907959 374.126984,318.767731 
M584.995483,468.990540 
	C568.652161,468.805939 552.308838,468.621338 535.076172,468.244232 
	C532.029968,468.215668 528.983765,468.187103 525.176331,467.915985 
	C519.467041,467.942780 513.757812,467.969604 507.108948,467.905884 
	C469.999847,467.597961 432.890503,467.027893 395.781677,467.058899 
	C361.507141,467.087555 327.233154,467.760590 292.208923,467.958191 
	C288.834442,468.054688 285.459930,468.151215 281.158997,468.097809 
	C277.116333,468.202362 273.073639,468.306946 268.110626,468.206604 
	C255.134018,468.414185 242.157394,468.621765 228.241241,468.624420 
	C215.400742,468.624420 202.560226,468.624420 189.719727,468.624420 
	C189.719528,469.177704 189.719330,469.730957 189.719147,470.284241 
	C202.842819,470.284241 215.966507,470.284241 229.961655,470.412354 
	C244.627518,470.574860 259.293365,470.737366 274.887939,471.071747 
	C299.937134,471.322144 324.986328,471.572510 350.848816,472.005798 
	C358.652069,472.067902 366.455597,472.206665 374.258514,472.178040 
	C399.489044,472.085510 424.719330,471.931396 450.883942,471.942291 
	C479.247498,471.533295 507.611053,471.124298 536.896057,470.915710 
	C553.245605,470.641937 569.595154,470.368195 586.680969,470.467102 
	C593.024292,470.467102 599.367615,470.467102 605.710938,470.467102 
	C605.708862,469.985352 605.706848,469.503571 605.704834,469.021820 
	C599.110779,469.021820 592.516724,469.021820 584.995483,468.990540 
M377.566711,402.544220 
	C374.767242,406.676392 374.694000,411.031006 377.814087,414.756104 
	C380.965637,418.518707 384.738861,421.783020 388.391876,425.098022 
	C394.341431,430.497070 394.764557,432.379303 390.452209,439.833099 
	C381.736298,442.821136 377.814880,440.651398 375.622437,431.627777 
	C373.242767,436.157837 373.297852,439.924744 375.770081,441.725739 
	C380.147491,444.914673 388.518250,444.534271 393.578339,440.992188 
	C400.853912,432.462769 400.559204,428.081268 392.260071,420.571533 
	C387.865448,416.594910 383.513458,412.571198 379.177979,407.753387 
	C379.391876,403.550720 381.677673,401.160095 385.714478,400.349243 
	C390.122406,399.463776 393.570221,400.801361 396.337616,404.784058 
	C395.987396,402.136566 395.196259,398.462189 393.761932,398.191071 
	C388.171448,397.134460 382.272736,396.752350 377.566711,402.544220 
M608.866455,402.797394 
	C611.640137,402.004303 614.562622,400.280243 617.143738,400.692566 
	C619.499207,401.068817 621.484985,403.759827 623.585327,405.393097 
	C623.585327,403.200897 623.585327,400.790833 623.585327,396.830658 
	C617.992371,397.782532 612.949036,398.640839 607.270813,399.812500 
	C601.106873,405.550690 600.740356,411.009979 606.503357,417.011749 
	C610.297058,420.962585 614.832642,424.243805 618.330200,428.416412 
	C619.834473,430.210907 620.603333,433.917480 619.785522,436.001678 
	C618.953186,438.122925 615.929565,440.216705 613.551147,440.668793 
	C611.091003,441.136414 607.737183,440.293976 605.731140,438.767273 
	C603.874146,437.354004 603.282532,434.278107 602.179565,432.027985 
	C599.140137,439.315552 600.742493,442.476624 608.423462,443.588593 
	C610.520020,443.892029 612.748901,443.766968 614.853271,443.434692 
	C619.829590,442.648926 623.494019,439.981659 625.083069,435.062164 
	C626.692749,430.078644 625.141113,425.901276 621.313354,422.493958 
	C617.835815,419.398407 614.376831,416.278717 610.816284,413.280670 
	C607.499939,410.488281 606.158508,407.296631 608.866455,402.797394 
M232.085068,400.634979 
	C232.399658,402.398743 232.966492,404.159607 232.987015,405.926788 
	C233.100983,415.745087 233.240768,425.568787 233.000336,435.381561 
	C232.938309,437.912079 231.538605,440.409851 230.775772,442.851074 
	C237.279633,442.851074 244.762665,442.933685 252.240112,442.767120 
	C253.440140,442.740356 255.194595,441.891968 255.685852,440.916382 
	C256.836090,438.632263 257.375366,436.040436 258.161987,433.573212 
	C253.791214,442.199219 246.204712,439.740723 238.857864,439.681458 
	C238.857864,436.597260 238.857880,433.787292 238.857880,430.977325 
	C238.857880,428.056915 238.857864,425.136505 238.857864,421.503448 
	C243.992294,421.981628 248.364212,422.388824 252.580750,422.781525 
	C252.580750,421.708435 252.580750,419.448578 252.580750,418.154694 
	C248.026413,418.457031 243.703659,418.743988 238.243042,419.106476 
	C238.880341,412.565094 239.443405,406.785645 240.914642,401.139221 
	C245.493027,402.127411 251.261078,398.509888 254.636444,405.728241 
	C254.636444,402.579865 254.636444,400.510895 254.636444,398.588684 
	C246.249557,398.588684 238.117966,398.588684 229.986389,398.588684 
	C229.956741,398.822083 229.927109,399.055481 229.897461,399.288879 
	C230.468384,399.496826 231.039291,399.704803 232.085068,400.634979 
M563.157227,363.981720 
	C527.232300,363.387909 491.307312,362.794098 455.192932,362.197144 
	C455.192932,364.062897 455.192932,365.458862 455.192932,365.767090 
	C491.621399,365.767090 527.743896,365.767090 564.796875,366.005615 
	C570.419617,366.005615 576.042419,366.005615 581.665161,366.005615 
	C581.644653,365.360565 581.624146,364.715515 581.603699,364.070465 
	C575.722046,364.070465 569.840454,364.070465 563.157227,363.981720 
M279.593445,427.951477 
	C275.789886,432.973572 271.986328,437.995667 268.495605,442.604736 
	C271.156464,442.604736 274.748047,442.604736 277.418121,442.604736 
	C277.374786,434.471741 283.569153,430.081787 287.089844,423.342316 
	C290.436890,428.795776 293.354065,433.238922 295.888214,437.890717 
	C296.540222,439.087646 295.986176,440.941589 295.986176,442.492920 
	C300.064667,442.492920 304.429474,442.492920 309.297577,442.492920 
	C307.134979,440.929108 304.988464,440.042633 303.856537,438.439697 
	C299.633850,432.459930 295.710571,426.266418 291.775024,420.089355 
	C291.326904,419.385956 291.064484,417.931763 291.468994,417.413849 
	C296.369629,411.138885 299.157440,403.054993 307.291534,398.987885 
	C306.301880,398.827698 305.681122,398.646057 305.058716,398.640167 
	C301.924469,398.610413 298.789825,398.626495 295.436493,398.626495 
	C297.571625,402.075623 293.782318,409.951111 287.879120,414.682587 
	C286.476196,408.935730 279.299866,405.923645 281.227600,398.686951 
	C276.991547,398.686951 272.759460,398.686951 269.721130,398.686951 
	C272.910950,402.918915 276.581146,407.426147 279.850006,412.207733 
	C285.062592,419.832581 284.949646,419.909790 279.593445,427.951477 
M321.885742,420.053802 
	C321.881012,422.050293 321.831207,424.047821 321.879089,426.043060 
	C322.139801,436.900269 329.046448,443.621643 339.978821,443.686615 
	C350.841553,443.751129 357.880310,437.031952 358.126892,426.145599 
	C358.273773,419.660492 357.991943,413.163940 358.210205,406.682892 
	C358.300171,404.012024 359.196930,401.368317 359.708221,398.804932 
	C357.106384,398.804932 353.953033,398.804932 351.155365,398.804932 
	C352.069305,400.170074 353.669800,401.453461 353.666718,402.732971 
	C353.643921,412.195251 353.788239,421.703583 352.883789,431.101562 
	C352.309937,437.063904 347.213318,440.683685 341.416229,441.051392 
	C333.949158,441.525024 328.382874,436.948181 327.806824,428.945587 
	C327.258575,421.329437 327.377197,413.648529 327.570404,406.005371 
	C327.632263,403.557526 328.866852,401.139282 329.542389,398.785858 
	C326.472260,398.785858 322.644623,398.785858 319.812958,398.785858 
	C320.522278,400.964233 321.674530,403.065491 321.815613,405.232605 
	C322.117554,409.870972 321.896698,414.543427 321.885742,420.053802 
M474.033447,429.761536 
	C473.955872,422.108887 473.716156,414.452637 473.887848,406.805573 
	C473.948853,404.088562 475.009857,401.394012 475.590179,398.797546 
	C472.501373,398.797546 468.754730,398.797546 465.946808,398.797546 
	C466.601135,401.136383 467.708679,403.432709 467.809082,405.772308 
	C468.087250,412.251404 467.889496,418.749329 467.982056,425.238342 
	C468.145386,436.689575 474.723236,443.505524 485.730927,443.732971 
	C496.678436,443.959229 503.544220,437.250488 503.879242,425.735992 
	C504.077606,418.918396 503.807800,412.085938 504.061615,405.271851 
	C504.141388,403.129669 505.238525,401.025360 505.895172,398.819275 
	C503.271454,398.819275 499.884644,398.819275 496.821106,398.819275 
	C497.778076,400.534576 499.473328,402.188721 499.516144,403.884552 
	C499.725891,412.191803 499.915192,420.541595 499.295837,428.815277 
	C498.743042,436.200073 494.071503,440.549072 487.699768,441.055389 
	C480.680847,441.613129 476.531219,438.415283 474.033447,429.761536 
M447.746338,392.572571 
	C443.498810,392.572571 439.251251,392.572571 436.009033,392.572571 
	C437.048462,395.376465 438.684418,397.814087 438.744385,400.289856 
	C439.018097,411.593628 439.013306,422.912262 438.726990,434.215881 
	C438.653625,437.112427 437.188843,439.973694 436.431732,442.612610 
	C439.860291,442.612610 444.254700,442.612610 448.649109,442.612610 
	C444.064789,441.224548 444.857300,437.501984 444.836426,434.246582 
	C444.769226,423.767883 444.905609,413.285767 444.676025,402.811279 
	C444.589111,398.847443 444.852570,395.310089 447.746338,392.572571 
M576.210266,419.502380 
	C576.194946,424.828766 576.426392,430.172363 576.056030,435.473969 
	C575.880920,437.981262 574.553955,440.408142 573.826782,442.632996 
	C577.109192,442.632996 581.329346,442.632996 584.478882,442.632996 
	C583.663269,440.422943 582.205139,438.227112 582.138977,435.990112 
	C581.843750,426.010681 581.791748,416.016052 582.012573,406.034912 
	C582.068420,403.510040 583.453247,401.014587 584.152405,398.748840 
	C580.965698,398.748840 576.911316,398.748840 573.808655,398.748840 
	C574.594116,401.039154 575.830444,403.239532 576.030701,405.530457 
	C576.406311,409.827484 576.182495,414.176941 576.210266,419.502380 
M598.446838,364.113373 
	C594.804871,364.113373 591.162842,364.113373 587.520874,364.113373 
	C587.537231,364.553192 587.553650,364.993042 587.570007,365.432861 
	C594.087769,365.432861 600.605469,365.432861 607.123230,365.432861 
	C607.131165,365.129578 607.139038,364.826263 607.146973,364.522980 
	C604.562683,364.400635 601.978394,364.278259 598.446838,364.113373 
z"/>
<path fill="#C0A476" opacity="1.000000" stroke="none" 
	d="
M292.958923,468.149841 
	C327.233154,467.760590 361.507141,467.087555 395.781677,467.058899 
	C432.890503,467.027893 469.999847,467.597961 507.938904,468.127594 
	C514.491760,468.285736 520.214661,468.222168 525.937561,468.158569 
	C528.983765,468.187103 532.029968,468.215668 535.529175,468.625366 
	C535.979675,469.576111 535.977112,470.145691 535.974609,470.715271 
	C507.611053,471.124298 479.247498,471.533295 450.052429,471.694550 
	C444.239258,471.346497 439.257660,471.165833 434.275848,471.159637 
	C411.815887,471.131805 389.355652,471.110260 366.895874,471.187408 
	C361.275116,471.206726 355.655609,471.600983 350.035522,471.822906 
	C324.986328,471.572510 299.937134,471.322144 274.148376,470.810547 
	C271.949554,469.836731 270.490265,469.124115 269.030975,468.411499 
	C273.073639,468.306946 277.116333,468.202362 281.973022,468.342896 
	C286.177704,468.441925 289.568298,468.295868 292.958923,468.149841 
z"/>
<path fill="#C1A274" opacity="1.000000" stroke="none" 
	d="
M392.249237,370.878113 
	C392.444275,370.266907 392.533356,369.186218 392.850159,369.114685 
	C397.944672,367.965088 397.259552,363.944336 397.385712,360.286041 
	C397.853607,346.717468 398.374268,333.150604 398.813690,319.581116 
	C399.054626,312.141144 396.961578,310.262451 389.499268,310.974304 
	C388.181488,311.100037 386.859833,311.185150 384.794861,311.203552 
	C383.377960,310.531647 382.706116,309.945251 382.034271,309.358856 
	C386.239288,308.043579 390.377319,306.383789 394.675598,305.548096 
	C397.077972,305.080994 398.113312,304.716766 398.169769,302.020386 
	C398.207184,300.236053 399.505005,298.478149 400.238556,296.708405 
	C401.141937,298.523926 402.151642,300.297028 402.900940,302.174072 
	C403.242035,303.028625 403.068390,304.088623 403.173828,305.792145 
	C411.045258,304.528442 417.199066,308.515625 423.726807,311.731842 
	C425.841888,312.773956 428.903290,311.895416 432.158417,311.895416 
	C432.055878,312.145874 431.559601,313.358124 430.535950,314.869751 
	C429.023773,315.137543 428.038940,315.105927 427.054138,315.074280 
	C424.370300,314.278961 421.704712,313.413757 418.997650,312.707458 
	C416.133575,311.960175 413.242828,310.878204 410.341125,310.801849 
	C404.014709,310.635315 402.079651,312.818542 402.225800,319.156952 
	C402.527863,332.261353 402.990662,345.363068 403.163208,358.468842 
	C403.229065,363.471863 403.668396,367.993011 408.534698,370.552612 
	C402.769867,370.894318 397.509552,370.886200 392.249237,370.878113 
z"/>
<path fill="#C1A274" opacity="1.000000" stroke="none" 
	d="
M279.783630,427.640076 
	C284.949646,419.909790 285.062592,419.832581 279.850006,412.207733 
	C276.581146,407.426147 272.910950,402.918915 269.721130,398.686951 
	C272.759460,398.686951 276.991547,398.686951 281.227600,398.686951 
	C279.299866,405.923645 286.476196,408.935730 287.879120,414.682587 
	C293.782318,409.951111 297.571625,402.075623 295.436493,398.626495 
	C298.789825,398.626495 301.924469,398.610413 305.058716,398.640167 
	C305.681122,398.646057 306.301880,398.827698 307.291534,398.987885 
	C299.157440,403.054993 296.369629,411.138885 291.468994,417.413849 
	C291.064484,417.931763 291.326904,419.385956 291.775024,420.089355 
	C295.710571,426.266418 299.633850,432.459930 303.856537,438.439697 
	C304.988464,440.042633 307.134979,440.929108 309.297577,442.492920 
	C304.429474,442.492920 300.064667,442.492920 295.986176,442.492920 
	C295.986176,440.941589 296.540222,439.087646 295.888214,437.890717 
	C293.354065,433.238922 290.436890,428.795776 287.089844,423.342316 
	C283.569153,430.081787 277.374786,434.471741 277.418121,442.604736 
	C274.748047,442.604736 271.156464,442.604736 268.495605,442.604736 
	C271.986328,437.995667 275.789886,432.973572 279.783630,427.640076 
z"/>
<path fill="#C0A476" opacity="1.000000" stroke="none" 
	d="
M321.887848,419.627869 
	C321.896698,414.543427 322.117554,409.870972 321.815613,405.232605 
	C321.674530,403.065491 320.522278,400.964233 319.812958,398.785858 
	C322.644623,398.785858 326.472260,398.785858 329.542389,398.785858 
	C328.866852,401.139282 327.632263,403.557526 327.570404,406.005371 
	C327.377197,413.648529 327.258575,421.329437 327.806824,428.945587 
	C328.382874,436.948181 333.949158,441.525024 341.416229,441.051392 
	C347.213318,440.683685 352.309937,437.063904 352.883789,431.101562 
	C353.788239,421.703583 353.643921,412.195251 353.666718,402.732971 
	C353.669800,401.453461 352.069305,400.170074 351.155365,398.804932 
	C353.953033,398.804932 357.106384,398.804932 359.708221,398.804932 
	C359.196930,401.368317 358.300171,404.012024 358.210205,406.682892 
	C357.991943,413.163940 358.273773,419.660492 358.126892,426.145599 
	C357.880310,437.031952 350.841553,443.751129 339.978821,443.686615 
	C329.046448,443.621643 322.139801,436.900269 321.879089,426.043060 
	C321.831207,424.047821 321.881012,422.050293 321.887848,419.627869 
z"/>
<path fill="#C1A274" opacity="1.000000" stroke="none" 
	d="
M474.093201,430.188629 
	C476.531219,438.415283 480.680847,441.613129 487.699768,441.055389 
	C494.071503,440.549072 498.743042,436.200073 499.295837,428.815277 
	C499.915192,420.541595 499.725891,412.191803 499.516144,403.884552 
	C499.473328,402.188721 497.778076,400.534576 496.821106,398.819275 
	C499.884644,398.819275 503.271454,398.819275 505.895172,398.819275 
	C505.238525,401.025360 504.141388,403.129669 504.061615,405.271851 
	C503.807800,412.085938 504.077606,418.918396 503.879242,425.735992 
	C503.544220,437.250488 496.678436,443.959229 485.730927,443.732971 
	C474.723236,443.505524 468.145386,436.689575 467.982056,425.238342 
	C467.889496,418.749329 468.087250,412.251404 467.809082,405.772308 
	C467.708679,403.432709 466.601135,401.136383 465.946808,398.797546 
	C468.754730,398.797546 472.501373,398.797546 475.590179,398.797546 
	C475.009857,401.394012 473.948853,404.088562 473.887848,406.805573 
	C473.716156,414.452637 473.955872,422.108887 474.093201,430.188629 
z"/>
<path fill="#C0A476" opacity="1.000000" stroke="none" 
	d="
M563.866394,365.767090 
	C527.743896,365.767090 491.621399,365.767090 455.192932,365.767090 
	C455.192932,365.458862 455.192932,364.062897 455.192932,362.197144 
	C491.307312,362.794098 527.232300,363.387909 563.532043,364.308594 
	C563.893372,365.012695 563.879883,365.389893 563.866394,365.767090 
z"/>
<path fill="#C1A274" opacity="1.000000" stroke="none" 
	d="
M238.022034,364.019348 
	C274.123962,363.447021 310.225891,362.874725 346.641602,362.297424 
	C346.641602,364.097351 346.641602,365.492584 346.641602,365.800507 
	C310.656067,365.800507 274.867828,365.800507 238.622467,365.469055 
	C238.117599,364.764862 238.069824,364.392120 238.022034,364.019348 
z"/>
<path fill="#C1A274" opacity="1.000000" stroke="none" 
	d="
M188.196747,413.811951 
	C193.600174,419.104462 199.003616,424.397003 204.873276,430.146149 
	C204.873276,419.077087 205.022064,408.365204 204.713074,397.666595 
	C204.666641,396.058899 202.479416,394.513000 201.224991,392.862885 
	C204.764969,392.862885 208.668076,392.862885 211.652512,392.862885 
	C210.911728,395.471771 209.465347,398.313049 209.399918,401.185760 
	C209.115677,413.663666 209.233643,426.150696 209.206512,438.634430 
	C209.203079,440.213715 209.206024,441.792999 209.206024,444.420105 
	C199.593353,434.251312 190.822205,424.972717 182.243317,415.433746 
	C183.986786,415.883881 185.537964,416.594391 187.357407,417.427795 
	C187.695450,415.971497 187.946106,414.891724 188.196747,413.811951 
z"/>
<path fill="#B69868" opacity="1.000000" stroke="none" 
	d="
M240.006485,401.006195 
	C239.443405,406.785645 238.880341,412.565094 238.243042,419.106476 
	C243.703659,418.743988 248.026413,418.457031 252.580750,418.154694 
	C252.580750,419.448578 252.580750,421.708435 252.580750,422.781525 
	C248.364212,422.388824 243.992294,421.981628 238.857864,421.503448 
	C238.857864,425.136505 238.857880,428.056915 238.857880,430.977325 
	C238.857880,433.787292 238.857864,436.597260 238.857864,439.681458 
	C246.204712,439.740723 253.791214,442.199219 258.161987,433.573212 
	C257.375366,436.040436 256.836090,438.632263 255.685852,440.916382 
	C255.194595,441.891968 253.440140,442.740356 252.240112,442.767120 
	C244.762665,442.933685 237.279633,442.851074 230.775772,442.851074 
	C231.538605,440.409851 232.938309,437.912079 233.000336,435.381561 
	C233.240768,425.568787 233.100983,415.745087 232.987015,405.926788 
	C232.966492,404.159607 232.399658,402.398743 232.233337,400.293457 
	C234.923233,400.303345 237.464859,400.654785 240.006485,401.006195 
z"/>
<path fill="#B69868" opacity="1.000000" stroke="none" 
	d="
M188.143890,413.863464 
	C187.946106,414.891724 187.695450,415.971497 187.357407,417.427795 
	C185.537964,416.594391 183.986786,415.883881 182.084976,415.131714 
	C181.414001,415.078552 181.176437,414.932404 180.971283,414.058350 
	C179.472855,412.087494 178.024811,410.709961 176.576752,409.332428 
	C176.576752,409.332428 176.773636,409.144348 176.651398,409.023743 
	C176.230148,408.620026 175.931152,408.336914 175.632156,408.053833 
	C175.632156,408.053833 175.897995,407.943207 175.724258,407.892395 
	C175.239639,407.595154 174.928757,407.348724 174.617874,407.102325 
	C173.773743,406.686829 172.929611,406.271332 171.138580,405.389740 
	C171.138580,412.501373 171.129562,418.890289 171.142532,425.279144 
	C171.148621,428.276184 170.827164,431.337219 171.331696,434.251953 
	C171.823135,437.091003 173.179489,439.780304 174.155350,442.533264 
	C171.444046,442.533264 167.337204,442.533264 164.541565,442.533264 
	C165.319427,439.815033 166.782532,436.988495 166.833298,434.136780 
	C167.078522,420.360779 166.943771,406.578003 166.943771,392.797607 
	C167.512817,392.462555 168.081848,392.127502 168.650894,391.792419 
	C174.714142,398.556488 180.777390,405.320526 187.140228,412.619537 
	C187.691452,413.443024 187.943085,413.731537 188.194733,414.020050 
	C188.194717,414.020050 188.091034,413.914978 188.143890,413.863464 
z"/>
<path fill="#C1A274" opacity="1.000000" stroke="none" 
	d="
M448.050873,392.688721 
	C444.852570,395.310089 444.589111,398.847443 444.676025,402.811279 
	C444.905609,413.285767 444.769226,423.767883 444.836426,434.246582 
	C444.857300,437.501984 444.064789,441.224548 448.649109,442.612610 
	C444.254700,442.612610 439.860291,442.612610 436.431732,442.612610 
	C437.188843,439.973694 438.653625,437.112427 438.726990,434.215881 
	C439.013306,422.912262 439.018097,411.593628 438.744385,400.289856 
	C438.684418,397.814087 437.048462,395.376465 436.009033,392.572571 
	C439.251251,392.572571 443.498810,392.572571 448.050873,392.688721 
z"/>
<path fill="#B69868" opacity="1.000000" stroke="none" 
	d="
M608.207275,403.173126 
	C606.158508,407.296631 607.499939,410.488281 610.816284,413.280670 
	C614.376831,416.278717 617.835815,419.398407 621.313354,422.493958 
	C625.141113,425.901276 626.692749,430.078644 625.083069,435.062164 
	C623.494019,439.981659 619.829590,442.648926 614.853271,443.434692 
	C612.748901,443.766968 610.520020,443.892029 608.423462,443.588593 
	C600.742493,442.476624 599.140137,439.315552 602.179565,432.027985 
	C603.282532,434.278107 603.874146,437.354004 605.731140,438.767273 
	C607.737183,440.293976 611.091003,441.136414 613.551147,440.668793 
	C615.929565,440.216705 618.953186,438.122925 619.785522,436.001678 
	C620.603333,433.917480 619.834473,430.210907 618.330200,428.416412 
	C614.832642,424.243805 610.297058,420.962585 606.503357,417.011749 
	C600.740356,411.009979 601.106873,405.550690 607.704773,400.106262 
	C608.161560,401.324402 608.184448,402.248749 608.207275,403.173126 
z"/>
<path fill="#B69868" opacity="1.000000" stroke="none" 
	d="
M547.200378,401.931427 
	C547.514099,401.937103 547.766479,402.064484 548.185181,402.747894 
	C548.665894,403.460114 548.918701,403.738007 549.171570,404.015869 
	C549.171570,404.015869 549.044312,403.957245 549.108521,404.188995 
	C549.437561,404.938812 549.702393,405.456879 549.967285,405.974945 
	C549.967285,405.974945 550.084595,406.371796 550.049072,407.057098 
	C550.048340,409.999542 550.083130,412.256683 550.117920,414.513824 
	C548.370667,417.317810 546.623291,420.121765 544.402771,423.685028 
	C550.027588,429.235443 553.627014,438.294739 563.677490,442.375732 
	C556.557800,443.396912 551.359314,441.780914 547.413940,436.856812 
	C545.232239,434.133911 543.000427,431.383636 541.299438,428.359802 
	C539.012878,424.295013 536.015564,422.303894 530.699585,423.611877 
	C529.694519,425.524078 529.054993,427.146545 528.984375,428.793365 
	C528.820740,432.607147 528.932373,436.432709 528.932373,440.253510 
	C528.507141,440.248627 528.081848,440.243744 527.656616,440.238861 
	C527.656616,430.295258 527.656616,420.351654 527.656616,410.408020 
	C528.080933,410.374603 528.505310,410.341156 528.929626,410.307709 
	C528.929626,412.155182 528.675476,414.048920 529.001282,415.837036 
	C529.325928,417.618591 530.232361,419.294128 531.335571,421.035217 
	C532.936829,421.051758 534.086426,421.061279 535.235657,421.044647 
	C542.492493,420.939728 545.686646,417.536560 545.182861,410.243286 
	C545.060486,408.471558 544.451782,406.733398 544.090210,404.854858 
	C544.061340,404.465332 543.889160,404.306122 543.592346,404.229431 
	C543.587402,404.206512 543.558533,404.243958 543.762939,403.927094 
	C545.045044,403.050629 546.122681,402.491028 547.200378,401.931427 
z"/>
<path fill="#B69868" opacity="1.000000" stroke="none" 
	d="
M576.209106,419.003479 
	C576.182495,414.176941 576.406311,409.827484 576.030701,405.530457 
	C575.830444,403.239532 574.594116,401.039154 573.808655,398.748840 
	C576.911316,398.748840 580.965698,398.748840 584.152405,398.748840 
	C583.453247,401.014587 582.068420,403.510040 582.012573,406.034912 
	C581.791748,416.016052 581.843750,426.010681 582.138977,435.990112 
	C582.205139,438.227112 583.663269,440.422943 584.478882,442.632996 
	C581.329346,442.632996 577.109192,442.632996 573.826782,442.632996 
	C574.553955,440.408142 575.880920,437.981262 576.056030,435.473969 
	C576.426392,430.172363 576.194946,424.828766 576.209106,419.003479 
z"/>
<path fill="#C0A476" opacity="1.000000" stroke="none" 
	d="
M530.883728,421.016113 
	C530.232361,419.294128 529.325928,417.618591 529.001282,415.837036 
	C528.675476,414.048920 528.929626,412.155182 528.929626,410.307709 
	C528.505310,410.341156 528.080933,410.374603 527.656616,410.408020 
	C527.656616,420.351654 527.656616,430.295258 527.656616,440.238861 
	C528.081848,440.243744 528.507141,440.248627 528.932373,440.253510 
	C528.932373,436.432709 528.820740,432.607147 528.984375,428.793365 
	C529.054993,427.146545 529.694519,425.524078 530.363159,423.892792 
	C530.756958,428.932922 530.863220,433.970764 531.091431,439.692444 
	C531.392883,440.654663 531.632141,440.865112 531.931152,441.007599 
	C532.770752,441.387665 533.610291,441.767731 535.557617,442.649292 
	C530.299316,442.649292 526.270874,442.649292 523.309082,442.649292 
	C524.046143,440.176819 525.419800,437.627380 525.463928,435.055145 
	C525.632263,425.251312 525.495850,415.436127 525.178589,405.634705 
	C525.105103,403.365204 523.867004,401.133392 523.074036,398.593567 
	C530.275208,399.668152 538.925049,396.250519 547.026123,401.610657 
	C546.122681,402.491028 545.045044,403.050629 543.474365,403.728943 
	C539.526550,400.265869 535.345154,400.784454 530.883728,401.485687 
	C530.883728,408.162506 530.883728,414.589325 530.883728,421.016113 
z"/>
<path fill="#CEAF78" opacity="1.000000" stroke="none" 
	d="
M379.142242,408.568695 
	C383.513458,412.571198 387.865448,416.594910 392.260071,420.571533 
	C400.559204,428.081268 400.853912,432.462769 392.991211,440.891357 
	C391.973328,440.342163 391.542572,439.893799 391.111816,439.445404 
	C394.764557,432.379303 394.341431,430.497070 388.391876,425.098022 
	C384.738861,421.783020 380.965637,418.518707 377.814087,414.756104 
	C374.694000,411.031006 374.767242,406.676392 378.077087,402.386200 
	C378.772400,404.341675 378.957306,406.455200 379.142242,408.568695 
z"/>
<path fill="#CEAF78" opacity="1.000000" stroke="none" 
	d="
M386.477356,351.223816 
	C386.184387,352.580017 386.263458,354.189972 385.539124,355.251984 
	C380.119263,363.198944 364.941895,363.519836 359.127686,355.820465 
	C358.304413,354.730347 358.150391,353.134796 358.051636,351.491089 
	C358.416656,351.208954 358.849457,351.330780 358.849457,351.330780 
	C358.849457,351.330780 359.297241,351.290192 359.725189,351.421875 
	C363.820099,351.400299 367.487030,351.247101 371.462463,351.115051 
	C372.180725,351.091797 372.590576,351.047394 373.320221,351.215118 
	C377.271881,351.303406 380.903687,351.179565 384.781555,351.073029 
	C385.510864,351.134796 385.994110,351.179291 386.477356,351.223816 
z"/>
<path fill="#CEAF78" opacity="1.000000" stroke="none" 
	d="
M443.076233,350.977295 
	C442.078400,353.185364 441.644897,356.039703 439.984772,357.489227 
	C432.901886,363.673676 422.148651,362.592285 415.258667,354.776855 
	C415.802002,353.310913 416.506134,352.510193 417.647461,351.687164 
	C421.372314,351.423218 424.659943,351.181580 428.245178,350.942505 
	C428.931427,351.012817 429.320160,351.080536 430.158875,351.347046 
	C434.227600,351.390167 437.846344,351.234558 441.735229,351.092621 
	C442.362305,351.063293 442.719238,351.020294 443.076233,350.977295 
z"/>
<path fill="#0C0A08" opacity="1.000000" stroke="none" 
	d="
M371.153992,351.093872 
	C367.487030,351.247101 363.820099,351.400299 359.909363,351.053772 
	C361.444702,345.051178 363.223846,339.548370 365.002960,334.045532 
	C365.765717,329.654083 366.623474,325.276245 367.254913,320.865997 
	C367.622467,318.298859 367.627289,315.679779 368.337341,313.215820 
	C372.327240,315.414581 369.437958,318.200653 369.483093,320.809082 
	C369.223694,321.728363 369.186707,322.467102 369.149689,323.205872 
	C369.453156,322.850708 369.756653,322.495514 370.294312,322.052338 
	C370.695160,321.970703 370.861816,321.977112 370.995667,322.452332 
	C371.026581,332.312073 371.090271,341.702942 371.153992,351.093872 
z"/>
<path fill="#807261" opacity="1.000000" stroke="none" 
	d="
M417.210266,351.709473 
	C416.506134,352.510193 415.802002,353.310913 415.092773,354.482666 
	C414.986969,353.240326 414.369354,351.443176 414.867188,350.042480 
	C418.940948,338.580475 423.222595,327.192413 427.247620,315.428070 
	C428.038940,315.105927 429.023773,315.137543 430.243347,315.045715 
	C433.836334,324.543457 437.180298,334.169586 440.563599,343.781860 
	C441.326538,345.949432 442.226715,348.068665 443.069946,350.593719 
	C442.719238,351.020294 442.362305,351.063293 441.569702,350.744965 
	C438.180664,342.550293 435.284912,334.694153 432.207977,326.909668 
	C431.776642,325.818420 430.457062,325.078247 429.306274,324.174133 
	C428.747467,324.097168 428.426819,324.069000 427.999756,323.842712 
	C427.684509,323.403900 427.471466,323.210571 427.258423,323.017212 
	C427.164032,323.138184 427.033081,323.245117 426.980499,323.382080 
	C424.021393,331.091034 421.015717,338.782837 418.158691,346.529480 
	C417.560272,348.152039 417.512054,349.977539 417.210266,351.709473 
z"/>
<path fill="#B69868" opacity="1.000000" stroke="none" 
	d="
M268.570801,468.309021 
	C270.490265,469.124115 271.949554,469.836731 273.684021,470.724609 
	C259.293365,470.737366 244.627518,470.574860 229.530640,470.105103 
	C229.096298,469.472443 229.123352,469.149628 229.180786,468.829346 
	C242.157394,468.621765 255.134018,468.414185 268.570801,468.309021 
z"/>
<path fill="#B69868" opacity="1.000000" stroke="none" 
	d="
M350.442169,471.914368 
	C355.655609,471.600983 361.275116,471.206726 366.895874,471.187408 
	C389.355652,471.110260 411.815887,471.131805 434.275848,471.159637 
	C439.257660,471.165833 444.239258,471.346497 449.585327,471.623932 
	C424.719330,471.931396 399.489044,472.085510 374.258514,472.178040 
	C366.455597,472.206665 358.652069,472.067902 350.442169,471.914368 
z"/>
<path fill="#CEAF78" opacity="1.000000" stroke="none" 
	d="
M416.017639,376.686035 
	C417.088379,376.777649 418.159119,376.869293 419.592285,377.396637 
	C419.954529,378.389099 419.954346,378.945892 419.954163,379.502655 
	C407.288361,379.595032 394.622498,379.687408 381.496429,379.395142 
	C381.030304,378.414581 381.024384,377.818665 381.018494,377.222748 
	C381.770874,377.101440 382.523285,376.980164 384.108795,376.866394 
	C395.300507,376.811279 405.659058,376.748657 416.017639,376.686035 
z"/>
<path fill="#807261" opacity="1.000000" stroke="none" 
	d="
M228.711014,468.726868 
	C229.123352,469.149628 229.096298,469.472443 229.094894,470.041016 
	C215.966507,470.284241 202.842819,470.284241 189.719147,470.284241 
	C189.719330,469.730957 189.719528,469.177704 189.719727,468.624420 
	C202.560226,468.624420 215.400742,468.624420 228.711014,468.726868 
z"/>
<path fill="#C0A476" opacity="1.000000" stroke="none" 
	d="
M390.782013,439.639252 
	C391.542572,439.893799 391.973328,440.342163 392.637665,440.869568 
	C388.518250,444.534271 380.147491,444.914673 375.770081,441.725739 
	C373.297852,439.924744 373.242767,436.157837 375.622437,431.627777 
	C377.814880,440.651398 381.736298,442.821136 390.782013,439.639252 
z"/>
<path fill="#C0A476" opacity="1.000000" stroke="none" 
	d="
M409.998352,371.973511 
	C412.088562,372.843384 414.178802,373.713226 415.670197,374.848022 
	C405.040588,375.110962 395.009796,375.108948 384.979004,375.106934 
	C384.779236,370.561615 388.354156,372.901611 391.089203,372.221619 
	C397.940918,372.147736 403.969635,372.060608 409.998352,371.973511 
z"/>
<path fill="#C0A476" opacity="1.000000" stroke="none" 
	d="
M379.160095,408.161041 
	C378.957306,406.455200 378.772400,404.341675 378.296967,402.112549 
	C382.272736,396.752350 388.171448,397.134460 393.761932,398.191071 
	C395.196259,398.462189 395.987396,402.136566 396.337616,404.784058 
	C393.570221,400.801361 390.122406,399.463776 385.714478,400.349243 
	C381.677673,401.160095 379.391876,403.550720 379.160095,408.161041 
z"/>
<path fill="#B69868" opacity="1.000000" stroke="none" 
	d="
M536.435303,470.815491 
	C535.977112,470.145691 535.979675,469.576111 535.973877,468.721619 
	C552.308838,468.621338 568.652161,468.805939 585.462646,469.274414 
	C585.934753,469.737000 585.939697,469.915710 585.944702,470.094452 
	C569.595154,470.368195 553.245605,470.641937 536.435303,470.815491 
z"/>
<path fill="#B69868" opacity="1.000000" stroke="none" 
	d="
M371.028442,321.983459 
	C370.861816,321.977112 370.695160,321.970703 370.239563,321.666687 
	C369.868927,321.122192 369.787201,320.875366 369.705475,320.628540 
	C369.437958,318.200653 372.327240,315.414581 368.647461,313.111389 
	C368.588135,311.971558 368.760742,311.067902 369.085022,309.370117 
	C373.514313,315.322388 377.431915,311.627289 381.727753,309.550049 
	C382.706116,309.945251 383.377960,310.531647 384.381409,311.235046 
	C381.095795,312.856903 377.478516,314.361694 373.514313,316.010834 
	C373.648193,316.613251 373.887573,317.690491 374.046692,319.445892 
	C373.616791,320.653778 373.267151,321.183533 372.937317,321.776917 
	C372.957153,321.840576 372.841949,321.907745 372.539124,321.862854 
	C371.833710,321.873169 371.431061,321.928314 371.028442,321.983459 
z"/>
<path fill="#C0A476" opacity="1.000000" stroke="none" 
	d="
M240.460571,401.072693 
	C237.464859,400.654785 234.923233,400.303345 231.995911,399.932343 
	C231.039291,399.704803 230.468384,399.496826 229.897461,399.288879 
	C229.927109,399.055481 229.956741,398.822083 229.986389,398.588684 
	C238.117966,398.588684 246.249557,398.588684 254.636444,398.588684 
	C254.636444,400.510895 254.636444,402.579865 254.636444,405.728241 
	C251.261078,398.509888 245.493027,402.127411 240.460571,401.072693 
z"/>
<path fill="#807261" opacity="1.000000" stroke="none" 
	d="
M608.536865,402.985260 
	C608.184448,402.248749 608.161560,401.324402 608.022217,399.949585 
	C612.949036,398.640839 617.992371,397.782532 623.585327,396.830658 
	C623.585327,400.790833 623.585327,403.200897 623.585327,405.393097 
	C621.484985,403.759827 619.499207,401.068817 617.143738,400.692566 
	C614.562622,400.280243 611.640137,402.004303 608.536865,402.985260 
z"/>
<path fill="#807261" opacity="1.000000" stroke="none" 
	d="
M372.917511,321.713257 
	C373.267151,321.183533 373.616791,320.653778 374.157837,319.868317 
	C378.353058,329.907959 382.356903,340.203339 386.419067,350.861267 
	C385.994110,351.179291 385.510864,351.134796 384.616394,350.720398 
	C380.442596,340.804749 376.680054,331.259003 372.917511,321.713257 
z"/>
<path fill="#564F45" opacity="1.000000" stroke="none" 
	d="
M223.104004,365.736206 
	C212.705872,365.736206 202.307739,365.736206 191.909592,365.736206 
	C191.903336,365.093140 191.897095,364.450073 191.890839,363.807007 
	C202.037216,363.807007 212.183609,363.807007 222.661285,364.196960 
	C223.029709,364.970001 223.066849,365.353088 223.104004,365.736206 
z"/>
<path fill="#0C0A08" opacity="1.000000" stroke="none" 
	d="
M384.859375,375.303375 
	C395.009796,375.108948 405.040588,375.110962 415.540314,375.130615 
	C416.019745,375.490021 416.030243,375.831787 416.029175,376.429810 
	C405.659058,376.748657 395.300507,376.811279 384.483948,376.777283 
	C384.263885,376.287048 384.501801,375.893433 384.859375,375.303375 
z"/>
<path fill="#564F45" opacity="1.000000" stroke="none" 
	d="
M586.312866,470.280762 
	C585.939697,469.915710 585.934753,469.737000 585.926270,469.290039 
	C592.516724,469.021820 599.110779,469.021820 605.704834,469.021820 
	C605.706848,469.503571 605.708862,469.985352 605.710938,470.467102 
	C599.367615,470.467102 593.024292,470.467102 586.312866,470.280762 
z"/>
<path fill="#564F45" opacity="1.000000" stroke="none" 
	d="
M598.920471,364.134644 
	C601.978394,364.278259 604.562683,364.400635 607.146973,364.522980 
	C607.139038,364.826263 607.131165,365.129578 607.123230,365.432861 
	C600.605469,365.432861 594.087769,365.432861 587.570007,365.432861 
	C587.553650,364.993042 587.537231,364.553192 587.520874,364.113373 
	C591.162842,364.113373 594.804871,364.113373 598.920471,364.134644 
z"/>
<path fill="#807261" opacity="1.000000" stroke="none" 
	d="
M364.807129,334.321716 
	C363.223846,339.548370 361.444702,345.051178 359.481384,350.922119 
	C359.297241,351.290192 358.849457,351.330780 358.849457,351.330780 
	C358.849457,351.330780 358.416656,351.208954 358.208496,351.124817 
	C360.203979,345.559723 362.407654,340.078827 364.807129,334.321716 
z"/>
<path fill="#807261" opacity="1.000000" stroke="none" 
	d="
M525.556946,468.037292 
	C520.214661,468.222168 514.491760,468.285736 508.408722,468.172852 
	C513.757812,467.969604 519.467041,467.942780 525.556946,468.037292 
z"/>
<path fill="#807261" opacity="1.000000" stroke="none" 
	d="
M564.331665,365.886353 
	C563.879883,365.389893 563.893372,365.012695 563.932861,364.352966 
	C569.840454,364.070465 575.722046,364.070465 581.603699,364.070465 
	C581.624146,364.715515 581.644653,365.360565 581.665161,366.005615 
	C576.042419,366.005615 570.419617,366.005615 564.331665,365.886353 
z"/>
<path fill="#807261" opacity="1.000000" stroke="none" 
	d="
M223.562485,365.775635 
	C223.066849,365.353088 223.029709,364.970001 222.995377,364.298187 
	C227.701157,363.940735 232.404144,363.871979 237.564575,363.911255 
	C238.069824,364.392120 238.117599,364.764862 238.167725,365.419983 
	C233.453690,365.739899 228.737320,365.777496 223.562485,365.775635 
z"/>
<path fill="#B69868" opacity="1.000000" stroke="none" 
	d="
M292.583923,468.054016 
	C289.568298,468.295868 286.177704,468.441925 282.436279,468.417847 
	C285.459930,468.151215 288.834442,468.054688 292.583923,468.054016 
z"/>
<path fill="#0C0A08" opacity="1.000000" stroke="none" 
	d="
M409.849792,371.782837 
	C403.969635,372.060608 397.940918,372.147736 391.455872,372.120605 
	C391.261414,371.737335 391.523315,371.468262 392.017212,371.038635 
	C397.509552,370.886200 402.769867,370.894318 408.493042,370.941956 
	C409.236725,371.145538 409.485168,371.349121 409.849792,371.782837 
z"/>
<path fill="#C0A476" opacity="1.000000" stroke="none" 
	d="
M550.391357,414.263855 
	C550.083130,412.256683 550.048340,409.999542 550.050049,407.264008 
	C550.279297,409.195038 550.472046,411.604431 550.391357,414.263855 
z"/>
<path fill="#C1A274" opacity="1.000000" stroke="none" 
	d="
M176.677231,409.650024 
	C178.024811,410.709961 179.472855,412.087494 180.920151,413.847107 
	C179.538834,412.808716 178.158264,411.388184 176.677231,409.650024 
z"/>
<path fill="#B69868" opacity="1.000000" stroke="none" 
	d="
M420.167664,379.575928 
	C419.954346,378.945892 419.954529,378.389099 419.964600,377.554138 
	C420.110046,378.067047 420.245605,378.858154 420.167664,379.575928 
z"/>
<path fill="#B69868" opacity="1.000000" stroke="none" 
	d="
M380.773438,377.254211 
	C381.024384,377.818665 381.030304,378.414581 381.037506,379.308899 
	C380.868683,378.833435 380.698547,378.059540 380.773438,377.254211 
z"/>
<path fill="#C0A476" opacity="1.000000" stroke="none" 
	d="
M550.051025,405.768799 
	C549.702393,405.456879 549.437561,404.938812 549.138428,404.125671 
	C549.447693,404.407928 549.791199,404.985291 550.051025,405.768799 
z"/>
<path fill="#B69868" opacity="1.000000" stroke="none" 
	d="
M531.821167,440.794983 
	C531.632141,440.865112 531.392883,440.654663 531.115417,440.155212 
	C531.308105,440.086517 531.539368,440.302582 531.821167,440.794983 
z"/>
<path fill="#C1A274" opacity="1.000000" stroke="none" 
	d="
M188.118515,413.723816 
	C187.943085,413.731537 187.691452,413.443024 187.268005,412.924316 
	C187.411575,412.938629 187.726944,413.183075 188.118515,413.723816 
z"/>
<path fill="#C1A274" opacity="1.000000" stroke="none" 
	d="
M175.727539,408.380127 
	C175.931152,408.336914 176.230148,408.620026 176.744049,409.123474 
	C176.580276,409.131348 176.201599,408.918884 175.727539,408.380127 
z"/>
<path fill="#C1A274" opacity="1.000000" stroke="none" 
	d="
M174.755463,407.398071 
	C174.928757,407.348724 175.239639,407.595154 175.779724,408.025238 
	C175.636978,408.037231 175.265015,407.865540 174.755463,407.398071 
z"/>
<path fill="#C0A476" opacity="1.000000" stroke="none" 
	d="
M549.082397,403.733124 
	C548.918701,403.738007 548.665894,403.460114 548.243530,402.958069 
	C548.380432,402.972717 548.686829,403.211548 549.082397,403.733124 
z"/>
<path fill="#0C0A08" opacity="1.000000" stroke="none" 
	d="
M531.335571,421.035217 
	C530.883728,414.589325 530.883728,408.162506 530.883728,401.485687 
	C535.345154,400.784454 539.526550,400.265869 543.269958,404.045807 
	C543.558533,404.243958 543.587402,404.206512 543.668457,404.438202 
	C543.749573,404.669891 544.066711,404.979797 544.066711,404.979797 
	C544.451782,406.733398 545.060486,408.471558 545.182861,410.243286 
	C545.686646,417.536560 542.492493,420.939728 535.235657,421.044647 
	C534.086426,421.061279 532.936829,421.051758 531.335571,421.035217 
z"/>
<path fill="#C0A476" opacity="1.000000" stroke="none" 
	d="
M544.090210,404.854858 
	C544.066711,404.979797 543.749573,404.669891 543.673462,404.461121 
	C543.889160,404.306122 544.061340,404.465332 544.090210,404.854858 
z"/>
<path fill="#0C0A08" opacity="1.000000" stroke="none" 
	d="
M372.937317,321.776917 
	C376.680054,331.259003 380.442596,340.804749 384.370331,350.703125 
	C380.903687,351.179565 377.271881,351.303406 373.371307,350.748474 
	C373.015686,340.682434 372.928802,331.295074 372.841949,321.907745 
	C372.841949,321.907745 372.957153,321.840576 372.937317,321.776917 
z"/>
<path fill="#807261" opacity="1.000000" stroke="none" 
	d="
M372.539124,321.862854 
	C372.928802,331.295074 373.015686,340.682434 373.051483,350.536377 
	C372.590576,351.047394 372.180725,351.091797 371.462463,351.115021 
	C371.090271,341.702942 371.026581,332.312073 370.995667,322.452332 
	C371.431061,321.928314 371.833710,321.873169 372.539124,321.862854 
z"/>
<path fill="#0C0A08" opacity="1.000000" stroke="none" 
	d="
M417.647461,351.687195 
	C417.512054,349.977539 417.560272,348.152039 418.158691,346.529480 
	C421.015717,338.782837 424.021393,331.091034 426.980499,323.382080 
	C427.033081,323.245117 427.164032,323.138184 427.258423,323.017212 
	C427.471466,323.210571 427.684509,323.403900 427.971436,324.190063 
	C428.075928,325.481506 428.106537,326.180176 428.051575,327.341370 
	C428.025726,330.915283 428.085480,334.026703 428.109131,337.566040 
	C428.067535,340.299286 428.062042,342.604645 427.969177,345.334595 
	C427.903748,347.486115 427.925690,349.213013 427.947601,350.939911 
	C424.659943,351.181580 421.372314,351.423218 417.647461,351.687195 
z"/>
<path fill="#0C0A08" opacity="1.000000" stroke="none" 
	d="
M429.548645,324.175568 
	C430.457062,325.078247 431.776642,325.818420 432.207977,326.909668 
	C435.284912,334.694153 438.180664,342.550293 441.299561,350.731293 
	C437.846344,351.234558 434.227600,351.390167 430.206635,350.893860 
	C429.730621,348.428009 429.656830,346.614044 429.632629,344.383209 
	C429.668243,341.713196 429.654236,339.460022 429.745667,336.830139 
	C429.756073,333.232086 429.661041,330.010712 429.608032,326.462891 
	C429.616272,325.482788 429.582458,324.829193 429.548645,324.175568 
z"/>
<path fill="#807261" opacity="1.000000" stroke="none" 
	d="
M429.583008,344.800079 
	C429.656830,346.614044 429.730621,348.428009 429.756653,350.695129 
	C429.320160,351.080536 428.931427,351.012817 428.245178,350.942505 
	C427.925690,349.213013 427.903748,347.486115 428.224854,345.352020 
	C428.906219,344.896576 429.244629,344.848328 429.583008,344.800079 
z"/>
<path fill="#807261" opacity="1.000000" stroke="none" 
	d="
M369.483093,320.809082 
	C369.787201,320.875366 369.868927,321.122192 370.005402,321.754700 
	C369.756653,322.495514 369.453156,322.850708 369.149689,323.205872 
	C369.186707,322.467102 369.223694,321.728363 369.483093,320.809082 
z"/>
<path fill="#B69868" opacity="1.000000" stroke="none" 
	d="
M429.306274,324.174133 
	C429.582458,324.829193 429.616272,325.482788 429.368744,326.457092 
	C428.773254,326.835968 428.456512,326.869659 428.137146,326.878845 
	C428.106537,326.180176 428.075928,325.481506 428.073669,324.435486 
	C428.426819,324.069000 428.747467,324.097168 429.306274,324.174133 
z"/>
<path fill="#807261" opacity="1.000000" stroke="none" 
	d="
M428.051575,327.341370 
	C428.456512,326.869659 428.773254,326.835968 429.326721,326.783569 
	C429.661041,330.010712 429.756073,333.232086 429.495758,336.828705 
	C428.810760,337.151184 428.479034,337.129242 428.145233,337.138123 
	C428.085480,334.026703 428.025726,330.915283 428.051575,327.341370 
z"/>
<path fill="#B69868" opacity="1.000000" stroke="none" 
	d="
M428.109131,337.566040 
	C428.479034,337.129242 428.810760,337.151184 429.390320,337.205444 
	C429.654236,339.460022 429.668243,341.713196 429.632629,344.383209 
	C429.244629,344.848328 428.906219,344.896576 428.312195,344.927429 
	C428.062042,342.604645 428.067535,340.299286 428.109131,337.566040 
z"/>
</svg>